<svg width="230" height="230" viewBox="0 0 230 230" fill="none" xmlns="http://www.w3.org/2000/svg">
<rect width="230" height="230" fill="white"/>
<circle cx="115" cy="117" r="102" fill="#FF595E"/>
<path fill-rule="evenodd" clip-rule="evenodd" d="M81.4238 61.2417C72.7227 61.1128 67.3408 61.0322 65.2783 61C62.958 68.251 59.2681 74.5513 54.2085 79.9009C54.6274 80.6099 55.2881 80.9644 56.1904 80.9644C58.8652 78.5474 60.9438 76.7104 62.4263 75.4536C63.9409 74.1646 65.7778 72.7788 67.937 71.2964C70.0962 69.7817 72.062 68.6699 73.8345 67.9609C75.6069 67.252 77.7661 66.5591 80.312 65.8823C82.8901 65.2056 85.6616 64.7544 88.6265 64.5288C91.5913 64.3032 95.0396 64.1743 98.9712 64.1421C83.438 87.2163 68.1143 109.324 53 130.464C53 131.238 53.2417 131.866 53.7251 132.35C57.2056 132.156 60.6377 132.06 64.0215 132.06H109.909C109.84 139.9 109.657 147.692 109.36 155.437C109.328 156.275 108.957 157 108.248 157.612C107.539 158.192 106.508 158.644 105.154 158.966C103.833 159.288 102.705 159.53 101.771 159.691C100.868 159.82 99.6758 159.949 98.1934 160.078C98.0645 160.4 98 160.835 98 161.383C98 161.641 98.0645 161.963 98.1934 162.35C103.607 162.156 109.215 162.06 115.016 162.06C120.752 162.06 126.359 162.156 131.838 162.35C131.967 161.963 132.031 161.641 132.031 161.383C132.031 161.157 131.967 160.722 131.838 160.078C130.355 159.949 129.147 159.82 128.212 159.691C127.31 159.53 126.182 159.288 124.829 158.966C123.507 158.644 122.492 158.192 121.783 157.612C121.074 157 120.704 156.275 120.671 155.437C120.317 144.802 120.14 136.053 120.14 129.188C127.294 129.06 132.708 128.995 136.382 128.995C142.312 128.995 148.257 129.092 154.219 129.285C154.155 135.215 153.994 143.932 153.736 155.437C153.736 156.275 153.381 157 152.672 157.612C151.963 158.192 150.932 158.644 149.579 158.966C148.225 159.288 147.081 159.53 146.146 159.691C145.212 159.82 144.003 159.949 142.521 160.078C142.392 160.4 142.328 160.835 142.328 161.383C142.328 161.641 142.392 161.963 142.521 162.35C147.967 162.156 153.575 162.06 159.343 162.06C165.112 162.06 170.735 162.156 176.214 162.35C176.343 161.963 176.407 161.641 176.407 161.383C176.407 161.028 176.343 160.593 176.214 160.078C174.731 159.949 173.523 159.82 172.588 159.691C171.686 159.53 170.558 159.288 169.205 158.966C167.851 158.644 166.82 158.192 166.111 157.612C165.402 157 165.031 156.275 164.999 155.437C164.677 147.413 164.516 137.841 164.516 126.723C164.516 115.541 164.677 105.937 164.999 97.9126C165.031 97.0747 165.402 96.3657 166.111 95.7856C166.82 95.1733 167.851 94.7061 169.205 94.3838C170.558 94.0615 171.686 93.8359 172.588 93.707C173.523 93.5459 174.731 93.4009 176.214 93.272C176.343 92.6919 176.407 92.2891 176.407 92.0635C176.407 91.8701 176.343 91.5156 176.214 91C168.931 91.2578 163.307 91.3867 159.343 91.3867C155.412 91.3867 149.804 91.2578 142.521 91C142.392 91.5156 142.328 91.8701 142.328 92.0635C142.328 92.2891 142.392 92.6919 142.521 93.272C144.003 93.4009 145.196 93.5459 146.098 93.707C147.033 93.8359 148.177 94.0615 149.53 94.3838C150.884 94.7061 151.915 95.1733 152.624 95.7856C153.333 96.3657 153.704 97.0747 153.736 97.9126C153.929 103.81 154.09 112.753 154.219 124.741C148.257 124.935 142.312 125.031 136.382 125.031C129.131 125.031 123.717 124.967 120.14 124.838C120.14 116.523 120.349 107.548 120.768 97.9126C120.8 97.0747 121.171 96.3657 121.88 95.7856C122.589 95.1733 123.604 94.7061 124.925 94.3838C126.279 94.0615 127.407 93.8359 128.309 93.707C129.244 93.5459 130.452 93.4009 131.935 93.272C132.063 92.6919 132.128 92.2891 132.128 92.0635C132.128 91.8701 132.063 91.5156 131.935 91C124.716 91.2578 119.108 91.3867 115.112 91.3867C111.116 91.3867 105.509 91.2578 98.29 91C98.1611 91.3867 98.0967 91.7412 98.0967 92.0635C98.0967 92.2891 98.1611 92.6919 98.29 93.272C99.7725 93.4009 100.965 93.5459 101.867 93.707C102.802 93.8359 103.93 94.0615 105.251 94.3838C106.604 94.7061 107.636 95.1733 108.345 95.7856C109.054 96.3657 109.424 97.0747 109.457 97.9126C109.725 104.219 109.882 111.52 109.926 119.816C109.681 120.097 109.429 120.376 109.171 120.651C107.334 122.617 105.207 124.196 102.79 125.389C100.373 126.549 97.4565 127.467 94.0405 128.144C90.6567 128.789 86.7573 129.111 82.3423 129.111H66.3901C81.021 107.551 96.2642 85.5728 112.12 63.1753C112.12 62.0796 111.588 61.3545 110.524 61C107.302 61.2578 104.079 61.3867 100.856 61.3867C96.6025 61.3867 90.125 61.3384 81.4238 61.2417Z" fill="white"/>
</svg>
